<svg width="512" height="512" viewBox="0 0 512 512" fill="none" xmlns="http://www.w3.org/2000/svg">
<circle cx="103" cy="452" r="40" stroke="white" stroke-width="20"/>
<circle cx="410" cy="452" r="40" stroke="white" stroke-width="20"/>
<circle cx="103" cy="82" r="40" stroke="white" stroke-width="20"/>
<line x1="103.258" y1="408.008" x2="103.258" y2="121.994" stroke="white" stroke-width="20"/>
<path d="M319.5 82.6262L317.669 92.4572L317.669 92.4572L319.5 82.6262ZM177.799 75.6876C173.967 79.6647 174.084 85.9952 178.061 89.8273L242.871 152.275C246.849 156.107 253.179 155.989 257.011 152.012C260.843 148.035 260.726 141.704 256.749 137.872L199.14 82.3637L254.648 24.7547C258.48 20.7777 258.363 14.4471 254.386 10.615C250.409 6.78297 244.078 6.9005 240.246 10.8776L177.799 75.6876ZM419 408.126L419 163H399L399 408.126H419ZM419 163C419 157.87 416.902 152.934 414.637 148.903C412.246 144.65 408.981 140.221 405.286 135.837C397.879 127.049 388.002 117.576 377.738 108.821C367.446 100.041 356.511 91.7682 346.854 85.4141C342.03 82.24 337.413 79.4712 333.277 77.344C329.33 75.3138 325.133 73.5033 321.331 72.7952L317.669 92.4572C318.532 92.6179 320.631 93.3302 324.13 95.1295C327.44 96.8319 331.419 99.1996 335.861 102.122C344.735 107.961 355.008 115.72 364.758 124.037C374.537 132.378 383.536 141.066 389.994 148.727C393.231 152.567 395.647 155.935 397.202 158.703C398.884 161.695 399 163.005 399 163H419ZM321.331 72.7952C296.617 68.1926 271.611 68.0486 248.345 69.0729C224.302 70.1313 203.922 72.2731 184.814 72.6279L185.186 92.6245C204.067 92.2739 227.322 90.0177 249.224 89.0535C271.902 88.0551 295.152 88.2638 317.669 92.4572L321.331 72.7952Z" fill="white"/>
</svg>
